<svg xmlns="http://www.w3.org/2000/svg" width="370" height="370" viewBox="0 0 370 370" version="1.1"><path d="M 258.155 146.122 C 238.545 156.089, 218.450 166.378, 213.500 168.987 C 208.550 171.595, 187.850 182.174, 167.500 192.495 C 147.150 202.816, 130.073 211.652, 129.550 212.130 C 129.011 212.624, 172.414 213, 229.843 213 L 331.086 213 336.164 208.250 L 341.242 203.500 256.871 203 L 172.500 202.500 185 196.117 C 191.875 192.606, 201.550 187.610, 206.500 185.014 C 211.450 182.418, 227.650 174.087, 242.500 166.500 C 257.350 158.914, 269.950 152.385, 270.500 151.992 C 271.050 151.599, 281.063 146.435, 292.750 140.516 C 304.438 134.597, 314 129.360, 314 128.877 C 314 128.395, 309.457 128, 303.905 128 L 293.811 128 258.155 146.122 M 57.972 139.539 C 53.862 141.485, 49.150 143.725, 47.500 144.516 C 44.860 145.782, 53.292 145.957, 117.750 145.977 C 158.038 145.990, 191 146.338, 191 146.751 C 191 147.164, 184.137 150.982, 175.750 155.235 C 167.363 159.489, 149.700 168.513, 136.500 175.289 C 123.300 182.065, 97.650 195.204, 79.500 204.487 C 61.350 213.770, 42.900 223.241, 38.500 225.532 L 30.500 229.699 30.200 235.349 L 29.900 241 139.561 241 L 249.222 241 254.169 236.858 C 256.901 234.571, 258.734 232.334, 258.263 231.863 C 257.794 231.394, 211.980 230.895, 156.455 230.755 L 55.500 230.500 88 213.611 C 105.875 204.321, 127.925 192.796, 137 187.998 C 146.075 183.200, 161.600 175.074, 171.500 169.939 C 181.400 164.805, 194.900 157.767, 201.500 154.299 C 208.100 150.832, 218.080 145.650, 223.677 142.784 C 229.275 139.918, 233.636 137.219, 233.368 136.787 C 233.101 136.354, 195.208 136, 149.163 136 L 65.444 136 57.972 139.539" stroke="none" fill="#ffffff" fill-rule="evenodd"/><path d="M 165.500 5.703 C 155.396 6.631, 137.978 10.355, 127.258 13.880 C 64.054 34.662, 17.320 88.495, 6.048 153.500 C 0.922 183.062, 3.295 214.927, 12.712 243 C 22.665 272.671, 42.660 301.868, 66.935 322.178 C 114.819 362.242, 176.941 374.974, 236.310 356.892 C 283.780 342.435, 324.152 307.618, 345.450 262.773 C 357.642 237.102, 362.960 213.332, 362.962 184.500 C 362.965 156.626, 357.408 132.031, 345.506 107.227 C 315.242 44.161, 251.719 4.397, 182.500 5.188 C 175.350 5.269, 167.700 5.501, 165.500 5.703 M 247.500 151.574 C 222.200 164.525, 185.525 183.253, 166 193.193 C 146.475 203.133, 130.073 211.655, 129.550 212.132 C 129.013 212.623, 172.557 213, 229.763 213 L 330.926 213 335.889 208.750 C 338.619 206.412, 340.886 204.165, 340.926 203.756 C 340.967 203.346, 303.088 202.896, 256.751 202.756 L 172.502 202.500 185.001 196.118 C 191.876 192.608, 202.900 186.932, 209.500 183.504 C 216.100 180.076, 230.950 172.419, 242.500 166.488 C 254.050 160.557, 267.550 153.581, 272.500 150.986 C 277.450 148.391, 288.813 142.580, 297.750 138.072 C 306.688 133.565, 314 129.454, 314 128.938 C 314 128.414, 309.478 128.006, 303.750 128.014 L 293.500 128.028 247.500 151.574 M 57.972 139.539 C 53.862 141.485, 49.150 143.725, 47.500 144.516 C 44.860 145.782, 53.292 145.957, 117.750 145.977 C 158.038 145.990, 190.998 146.338, 190.996 146.750 C 190.994 147.162, 185.031 150.520, 177.746 154.211 C 158.276 164.075, 49.990 219.503, 39.500 224.975 L 30.500 229.669 30.200 235.334 L 29.900 241 139.720 241 L 249.539 241 254.270 236.889 C 256.871 234.628, 259 232.378, 259 231.889 C 259 231.376, 215.948 231, 157.300 231 C 100.615 231, 56.020 230.620, 56.550 230.142 C 57.073 229.670, 76.625 219.357, 100 207.224 C 123.375 195.092, 144.975 183.853, 148 182.248 C 151.025 180.644, 161.600 175.121, 171.500 169.976 C 181.400 164.830, 194.900 157.780, 201.500 154.308 C 208.100 150.836, 218.112 145.634, 223.750 142.748 C 229.387 139.861, 234 137.162, 234 136.750 C 234 136.338, 196.075 136, 149.722 136 L 65.444 136 57.972 139.539" stroke="none" fill="#c90300" fill-rule="evenodd"/></svg>